<svg height="463pt" viewBox="-39 0 463 463.99055" width="463pt" xmlns="http://www.w3.org/2000/svg"><path d="m304.496094 127.992188v88c0 8.835937-7.164063 16-16 16h-32v64h48c35.34375 0 64-28.65625 64-64v-104zm0 0" fill="#d6d6d4"/><path d="m64.496094 231.992188h48v96h-48c-26.511719 0-48-21.492188-48-48 0-26.511719 21.488281-48 48-48zm0 0" fill="#d6d6d4"/><path d="m147.941406 44.320312c-9.53125-29.421874-30.886718-48.859374-47.699218-43.414062s-22.71875 33.710938-13.1875 63.132812c9.527343 29.425782 30.882812 48.863282 47.699218 43.417969 16.8125-5.449219 22.714844-33.714843 13.1875-63.136719zm0 0" fill="#e94f4f"/><path d="m268.675781 1.019531c-16.808593-5.441406-38.152343 13.988281-47.679687 43.402344-9.527344 29.410156-3.625 57.667969 13.183594 63.109375 16.808593 5.445312 38.15625-13.984375 47.679687-43.398438 9.527344-29.414062 3.625-57.667968-13.183594-63.113281zm0 0" fill="#e94f4f"/><path d="m205.230469 39.992188h-41.472657c-47.765624-.003907-88.269531 35.113281-95.039062 82.398437-2.800781 19.574219-2.261719 39.480469 1.601562 58.871094 5.890626 29.503906 31.792969 50.738281 61.878907 50.730469h104.59375c30.0625-.003907 55.949219-21.226563 61.847656-50.707032 3.859375-19.390625 4.402344-39.296875 1.597656-58.871094-6.753906-47.285156-47.242187-82.410156-95.007812-82.421874zm0 0" fill="#e0e0de"/><path d="m272.605469 67.703125c-51.511719 82.886719-140.910157 128.765625-183.796875 146.945313 11.699218 11.132812 27.238281 17.34375 43.390625 17.34375h104.59375c30.0625-.003907 55.949219-21.226563 61.847656-50.707032 3.859375-19.390625 4.402344-39.296875 1.597656-58.871094-2.957031-20.773437-12.667969-40-27.632812-54.710937zm0 0" fill="#d6d6d4"/><path d="m183.757812 167.992188c-1.238281 0-2.464843-.289063-3.574218-.839844l-16-8c-3.324219-1.660156-5.070313-5.382813-4.21875-9 .851562-3.613282 4.082031-6.164063 7.792968-6.160156h32c3.714844-.003907 6.941407 2.546874 7.796876 6.160156.851562 3.617187-.894532 7.339844-4.21875 9l-16 8c-1.113282.550781-2.335938.839844-3.578126.839844zm0 0" fill="#e94f4f"/><path d="m155.648438 114.71875-2.707032-8.097656c-2.984375-8.957032-10.398437-15.726563-19.589844-17.894532-9.191406-2.164062-18.847656.582032-25.519531 7.265626l-5.679687 5.679687-11.3125-11.328125 5.679687-5.671875c10.589844-10.617187 25.925781-14.984375 40.519531-11.535156s26.355469 14.21875 31.070313 28.453125l2.707031 8.097656zm0 0" fill="#c9c9c7"/><path d="m213.34375 114.71875-15.199219-5.0625 2.703125-8.097656c4.710938-14.253906 16.484375-25.039063 31.097656-28.488282 14.609376-3.445312 29.964844.941407 40.550782 11.585938l5.679687 5.671875-11.3125 11.328125-5.679687-5.683594c-6.675782-6.679687-16.335938-9.421875-25.527344-7.253906-9.1875 2.167969-16.601562 8.945312-19.585938 17.902344zm0 0" fill="#c9c9c7"/><path d="m143.757812 119.992188c0 8.835937-7.160156 16-16 16-8.835937 0-16-7.164063-16-16 0-8.839844 7.164063-16 16-16 8.839844 0 16 7.160156 16 16zm0 0" fill="#3d4d63"/><path d="m255.757812 119.992188c0 8.835937-7.160156 16-16 16-8.835937 0-16-7.164063-16-16 0-8.839844 7.164063-16 16-16 8.839844 0 16 7.160156 16 16zm0 0" fill="#3d4d63"/><g fill="#c9c9c7"><path d="m88.496094 152.605469c.625-4.371094 4.675781-7.410157 9.050781-6.785157l40.160156 5.734376c4.375.625 7.414063 4.679687 6.789063 9.050781-.625 4.375-4.679688 7.414062-9.050782 6.789062l-40.160156-5.734375c-4.375-.625-7.414062-4.679687-6.789062-9.054687zm0 0"/><path d="m101.558594 174.496094 32.824218-10.945313c4.191407-1.398437 8.722657.863281 10.121094 5.054688 1.394532 4.191406-.867187 8.722656-5.058594 10.121093l-32.824218 10.945313c-4.191406 1.398437-8.722656-.863281-10.121094-5.054687-1.398438-4.191407.867188-8.722657 5.058594-10.121094zm0 0"/><path d="m231.28125 151.566406 40.160156-5.746094c4.375-.625 8.425782 2.410157 9.050782 6.785157.628906 4.375-2.410157 8.425781-6.785157 9.050781l-40.160156 5.746094c-4.371094.625-8.425781-2.410156-9.050781-6.785156s2.414062-8.425782 6.785156-9.050782zm0 0"/><path d="m224.492188 168.613281c1.398437-4.191406 5.925781-6.457031 10.117187-5.058593l32.824219 10.941406c4.191406 1.394531 6.457031 5.925781 5.0625 10.117187-1.398438 4.191407-5.929688 6.457031-10.121094 5.0625l-32.824219-10.941406c-4.191406-1.398437-6.457031-5.929687-5.058593-10.121094zm0 0"/></g><path d="m210.960938 192.613281c-.890626 0-1.769532 0-2.65625-.09375-9.347657-.660156-18.105469-4.804687-24.546876-11.609375-6.945312 7.34375-16.566406 11.5625-26.671874 11.703125-10.105469.136719-19.835938-3.816406-26.984376-10.964843l11.3125-11.3125c4.394532 4.394531 10.480469 6.664062 16.679688 6.222656 6.199219-.4375 11.90625-3.546875 15.632812-8.519532l3.632813-4.847656c1.511719-2.015625 3.882813-3.199218 6.398437-3.199218 2.519532 0 4.890626 1.183593 6.402344 3.199218l3.640625 4.847656c3.722657 4.972657 9.425781 8.085938 15.625 8.527344 6.199219.445313 12.285157-1.828125 16.675781-6.222656l11.3125 11.3125c-7.015624 7.015625-16.53125 10.957031-26.453124 10.957031zm0 0" fill="#e94f4f"/><path d="m280.496094 303.992188h-8v-40h-176v40h-8c-48.601563 0-88 39.398437-88 88v40h368v-40c0-48.601563-39.398438-88-88-88zm0 0" fill="#d6d6d4"/><path d="m96.496094 231.992188h176v32h-176zm0 0" fill="#e94f4f"/><path d="m96.496094 263.992188h176c0 48.597656-39.398438 88-88 88-48.601563 0-88-39.402344-88-88zm0 0" fill="#7eb457"/><path d="m233.648438 263.992188c-24.25 40-69.882813 61.488281-99.898438 71.8125 26.835938 19.019531 62.039062 21.46875 91.246094 6.347656 29.207031-15.117188 47.53125-45.273438 47.5-78.160156zm0 0" fill="#69a340"/><path d="m208.496094 255.992188c0 13.253906-10.746094 24-24 24s-24-10.746094-24-24c0-13.257813 10.746094-24 24-24s24 10.742187 24 24zm0 0" fill="#ffb531"/><path d="m107.234375 314.734375c24.996094-24.992187 65.515625-24.992187 90.511719 0l33.941406 33.941406c24.992188 24.992188 24.992188 65.515625 0 90.507813-24.996094 24.996094-65.519531 24.996094-90.511719 0l-33.941406-33.941406c-24.992187-24.992188-24.992187-65.515626 0-90.507813zm0 0" fill="#ffb531"/><path d="m122.839844 386.335938 55.996094-55.996094 11.3125 11.3125-55.996094 55.996094zm0 0" fill="#ffcb73"/><path d="m146.835938 410.335938 55.996093-55.996094 11.316407 11.3125-56 55.996094zm0 0" fill="#ffcb73"/><path d="m178.832031 426.335938 40-40 11.3125 11.316406-40 40zm0 0" fill="#ffcb73"/><path d="m336.496094 71.992188c-26.511719 0-48 21.488281-48 48v8c0 8.835937 7.164062 16 16 16 8.835937 0 16-7.164063 16-16 0 8.835937 7.164062 16 16 16 8.835937 0 16-7.164063 16-16 0 8.835937 7.164062 16 16 16 8.835937 0 16-7.164063 16-16v-8c0-26.511719-21.492188-48-48-48zm0 0" fill="#ebebe9"/><path d="m155.625 292.503906-5.890625-5.890625c-19.558594-19.140625-50.882813-18.96875-70.234375.382813-19.351562 19.351562-19.519531 50.671875-.378906 70.234375l5.886718 5.886719c6.535157 6.300781 16.910157 6.207031 23.328126-.214844 6.417968-6.417969 6.511718-16.796875.207031-23.328125 6.5 6.5 17.035156 6.5 23.535156 0s6.5-17.035157 0-23.535157c6.535156 6.300782 16.910156 6.210938 23.332031-.207031 6.417969-6.417969 6.515625-16.796875.214844-23.328125zm0 0" fill="#ebebe9"/><path d="m48.496094 391.992188c-26.511719 0-48 21.488281-48 48v8c0 8.835937 7.164062 16 16 16 8.835937 0 16-7.164063 16-16 0 8.835937 7.164062 16 16 16 8.835937 0 16-7.164063 16-16 0 8.835937 7.164062 16 16 16 8.835937 0 16-7.164063 16-16v-8c0-26.511719-21.492188-48-48-48zm0 0" fill="#ebebe9"/><path d="m320.496094 391.992188c-26.511719 0-48 21.488281-48 48v8c0 8.835937 7.164062 16 16 16 8.835937 0 16-7.164063 16-16 0 8.835937 7.164062 16 16 16 8.835937 0 16-7.164063 16-16 0 8.835937 7.164062 16 16 16 8.835937 0 16-7.164063 16-16v-8c0-26.511719-21.492188-48-48-48zm0 0" fill="#ebebe9"/></svg>