<svg height="464pt" viewBox="-32 0 464 464.01122" width="464pt" xmlns="http://www.w3.org/2000/svg"><path d="m336.003906 336-68.285156 111.609375c-7.351562 10.285156-19.214844 16.390625-31.855469 16.390625-7.730469-.003906-15.289062-2.289062-21.722656-6.574219-8.558594-5.707031-19.710937-5.707031-28.269531 0-6.433594 4.285157-13.992188 6.570313-21.722656 6.574219-12.640626 0-24.503907-6.105469-31.855469-16.390625l-68.289063-111.609375v-136c-4.0625-34.535156 6.832032-69.160156 29.941406-95.148438 23.105469-25.984374 56.222657-40.851562 90.996094-40.851562h30.128906c34.773438 0 67.890626 14.867188 90.996094 40.851562 23.109375 25.988282 34.003906 60.613282 29.9375 95.148438zm0 0" fill="#e94f4f"/><path d="m287.367188 87.785156c-8.585938 217.597656-105.195313 297.671875-175.097657 327.09375l20 32.730469c12.285157 17.207031 36.015625 21.550781 53.601563 9.816406 8.558594-5.707031 19.710937-5.707031 28.269531 0 17.585937 11.734375 41.316406 7.390625 53.601563-9.816406l68.261718-111.609375v-136c5.148438-43.429688-13.425781-86.277344-48.636718-112.214844zm0 0" fill="#e04343"/><path d="m200.003906 400h2.800782c9.921874 1.53125 19.183593 5.921875 26.648437 12.632812 2.699219 2.171876 6.058594 3.355469 9.519531 3.359376 6.238282.011718 11.84375-3.796876 14.128906-9.601563 4.75-13.058594 10.570313-25.703125 17.398438-37.804687l20.875-29.226563c3.476562-4.871094 2.925781-11.546875-1.304688-15.785156-4.789062-4.773438-12.539062-4.773438-17.328124 0l-16.738282 20.425781-56 8-56-8-15.335937-20.414062c-4.789063-4.777344-12.535157-4.777344-17.328125 0-4.230469 4.234374-4.78125 10.910156-1.300782 15.78125l20.871094 29.226562c6.828125 12.101562 12.648438 24.746094 17.398438 37.804688 2.28125 5.792968 7.871094 9.601562 14.097656 9.601562 3.460938-.003906 6.820312-1.1875 9.519531-3.359375 7.472657-6.71875 16.746094-11.113281 26.679688-12.640625zm0 0" fill="#662c26"/><path d="m127.070312 224c-8.476562-.035156-16.800781-2.238281-24.183593-6.398438-7.554688 11.136719-8.988281 25.335938-3.808594 37.757813l53.925781 20.746094c9.972656-4.574219 17.589844-13.09375 21.023438-23.511719 3.429687-10.421875 2.367187-21.796875-2.933594-31.402344-3.410156 1.828125-7.21875 2.792969-11.089844 2.808594zm0 0" fill="#e0e0de"/><path d="m272.941406 224c8.476563-.035156 16.800782-2.238281 24.183594-6.398438 7.554688 11.136719 8.984375 25.335938 3.808594 37.757813l-53.929688 20.71875c-9.96875-4.570313-17.585937-13.089844-21.019531-23.507813-3.429687-10.421874-2.367187-21.796874 2.933594-31.402343 3.410156 1.835937 7.214843 2.808593 11.085937 2.832031zm0 0" fill="#e0e0de"/><path d="m34.667969 185.160156c-10.660157 3.554688-17.007813 14.492188-14.804688 25.511719l18.023438 98.726563c1.234375 6.164062 6.644531 10.597656 12.925781 10.601562 3.5.003906 6.855469-1.386719 9.332031-3.863281 2.472657-2.472657 3.863281-5.828125 3.859375-9.328125v-100.503906c0-7.164063-3.441406-13.890626-9.253906-18.082032-5.8125-4.1875-13.285156-5.328125-20.082031-3.0625zm0 0" fill="#e04343"/><path d="m365.339844 185.160156c-6.792969-2.265625-14.265625-1.125-20.078125 3.0625-5.8125 4.191406-9.257813 10.917969-9.257813 18.082032v100.503906c-.003906 7.285156 5.902344 13.191406 13.1875 13.191406 6.28125-.003906 11.691406-4.4375 12.925782-10.601562l18.023437-98.726563c2.203125-11.019531-4.140625-21.953125-14.800781-25.511719zm0 0" fill="#cf3a3a"/><path d="m323.078125 176.304688 12.925781 7.695312.746094.375c-.726562-63.335938-49.953125-115.511719-113.144531-119.910156 20.84375 46.636718 55.582031 85.699218 99.472656 111.839844zm0 0" fill="#3d4d63"/><path d="m76.933594 176.304688c43.890625-26.140626 78.628906-65.203126 99.472656-111.839844-63.144531 4.417968-112.347656 56.523437-113.144531 119.816406l.742187-.28125zm0 0" fill="#3d4d63"/><path d="m152.003906 240c0 8.835938-7.160156 16-16 16-8.835937 0-16-7.164062-16-16s7.164063-16 16-16c8.839844 0 16 7.164062 16 16zm0 0" fill="#3d4d63"/><path d="m280.003906 240c0 8.835938-7.160156 16-16 16-8.835937 0-16-7.164062-16-16s7.164063-16 16-16c8.839844 0 16 7.164062 16 16zm0 0" fill="#3d4d63"/><g fill="#cf3a3a"><path d="m216.003906 328h-32c-3.03125 0-5.804687-1.710938-7.160156-4.425781l-6-12c-.515625-1.039063-1.359375-1.878907-2.398438-2.398438-2.667968-1.328125-5.910156-.257812-7.265624 2.398438l-2 4-14.316407-7.148438 2-4c5.28125-10.589843 18.148438-14.890625 28.734375-9.601562 4.148438 2.085937 7.515625 5.449219 9.601563 9.601562l3.78125 7.574219h22.113281l3.785156-7.574219c2.082032-4.152343 5.449219-7.515625 9.597656-9.601562 10.585938-5.289063 23.457032-.988281 28.738282 9.601562l2 4-14.320313 7.148438-2-4c-1.347656-2.664063-4.597656-3.738281-7.265625-2.398438-1.039062.519531-1.882812 1.359375-2.398437 2.398438l-6 12c-1.367188 2.734375-4.167969 4.453125-7.226563 4.425781zm0 0"/><path d="m192.003906 256h16v64h-16zm0 0"/><path d="m96.003906 312c-2.429687 0-4.726562-1.101562-6.246094-3l-32-40c-2.761718-3.449219-2.203124-8.488281 1.246094-11.246094 3.453125-2.761718 8.488282-2.203125 11.25 1.246094l32 40c1.921875 2.402344 2.296875 5.691406.964844 8.464844-1.332031 2.773437-4.136719 4.535156-7.214844 4.535156zm0 0"/><path d="m304.003906 312c-3.074218 0-5.878906-1.761719-7.210937-4.535156-1.332031-2.773438-.957031-6.0625.964843-8.464844l32-40c2.761719-3.449219 7.796876-4.007812 11.246094-1.246094 3.453125 2.757813 4.011719 7.796875 1.25 11.246094l-32 40c-1.519531 1.898438-3.816406 3-6.25 3zm0 0"/><path d="m160.003906 232h-32.933594c-11.390624.003906-22.527343-3.371094-32-9.695312l-11.464843-7.648438 8.878906-13.3125 11.464844 7.648438c6.84375 4.570312 14.890625 7.011718 23.121093 7.007812h32.933594c8.839844 0 16-7.164062 16-16v-16h16v16c0 17.671875-14.324218 32-32 32zm0 0"/><path d="m272.941406 232h-32.9375c-17.671875 0-32-14.328125-32-32v-16h16v16c0 8.835938 7.164063 16 16 16h32.9375c8.257813.019531 16.332032-2.421875 23.199219-7.007812l11.464844-7.648438 8.878906 13.3125-11.460937 7.648438c-9.496094 6.339843-20.664063 9.714843-32.082032 9.695312zm0 0"/></g><path d="m182.703125 349.527344-38.699219-5.527344 24 34.929688zm0 0" fill="#e0e0de"/><path d="m256.003906 344-38.695312 5.527344 14.695312 29.402344zm0 0" fill="#e0e0de"/><path d="m63.382812 184-35.378906-71.464844c-8.058594-16.289062-13.785156-33.632812-17.007812-51.519531l-10.99218775-61.015625c19.26171875.0429688 36.58593775 11.710938 43.87499975 29.535156l11.78125 28.5625c5.921875 14.355469 15.234375 27.0625 27.144532 37.03125l20.183593 8.871094c4.859375 29.136719-7.710937 58.433594-32.175781 74.992188zm0 0" fill="#e0e0de"/><path d="m336.628906 184 35.375-71.464844c8.0625-16.289062 13.789063-33.632812 17.007813-51.519531l10.992187-61.015625c-19.257812.0429688-36.582031 11.710938-43.871094 29.535156l-11.78125 28.5625c-5.921874 14.355469-15.234374 27.0625-27.144531 37.03125l-20.183593 8.871094c-4.859376 29.136719 7.710937 58.433594 32.175781 74.992188zm0 0" fill="#e0e0de"/></svg>