<svg height="464pt" viewBox="0 0 464 464" width="464pt" xmlns="http://www.w3.org/2000/svg"><path d="m120 416h224v48h-224zm0 0" fill="#e04343"/><path d="m301.6875 0h-139.375c-27.632812 0-54.695312 7.878906-78.007812 22.710938-33.414063 21.269531-56.695313 55.253906-64.464844 94.089843l-16.105469 80.519531c-2.484375 12.425782-3.734375 25.066407-3.734375 37.734376.00390625 67.589843 35.464844 130.226562 93.425781 165l26.574219 15.945312h224l26.574219-15.945312c57.960937-34.773438 93.421875-97.410157 93.425781-165 0-12.667969-1.25-25.308594-3.734375-37.734376l-16.105469-80.519531c-7.769531-38.835937-31.054687-72.816406-64.464844-94.082031-23.3125-14.835938-50.375-22.71484375-78.007812-22.71875zm0 0" fill="#e94f4f"/><path d="m460.265625 197.320312-16.105469-80.519531c-7.394531-36.671875-28.65625-69.074219-59.359375-90.449219 15.199219 205.648438-120.800781 301.648438-305.417969 364.3125 4.539063 3.289063 9.175782 6.472657 14.042969 9.390626l26.574219 15.945312h224l26.574219-15.945312c69.734375-41.835938 105.636719-122.992188 89.691406-202.734376zm0 0" fill="#e04343"/><path d="m410.632812 245.992188c13.476563-13.851563 19.34375-33.410157 15.71875-52.390626-5.671874-29.753906-13.597656-70.5625-13.597656-70.5625-10.605468-52.925781-57.078125-91.023437-111.058594-91.039062h-139.390624c-54.007813-.003906-100.511719 38.113281-111.105469 91.070312 0 0-6.941407 40.851563-11.941407 70.601563-3.199218 19.023437 2.859376 38.433594 16.308594 52.265625 11.175782 11.539062 26.550782 18.058594 42.617188 18.0625h269.90625c16.007812 0 31.335937-6.476562 42.496094-17.960938zm0 0" fill="#ebebe9"/><path d="m426.351562 193.601562c-5.671874-29.753906-13.597656-70.5625-13.597656-70.5625-10.53125-52.664062-56.601562-90.6875-110.304687-91.039062-16.714844 123.921875-158.746094 195.199219-233.265625 224.351562 8.851562 4.996094 18.835937 7.628907 29 7.648438h269.90625c16.007812 0 31.335937-6.476562 42.496094-17.960938l.046874-.046874c13.476563-13.851563 19.34375-33.410157 15.71875-52.390626zm0 0" fill="#e0e0de"/><path d="m183.808594 201.769531-15.617188-3.503906c4.054688-18.089844 16.191406-30.265625 30.207032-30.265625 14.015624 0 26.152343 12.144531 30.203124 30.230469l-15.609374 3.496093c-2.34375-10.414062-8.34375-17.726562-14.59375-17.726562-6.246094 0-12.246094 7.320312-14.589844 17.769531zm0 0" fill="#e94f4f"/><path d="m280.191406 201.742188c-2.34375-10.445313-8.34375-17.742188-14.589844-17.742188-6.25 0-12.25 7.289062-14.59375 17.726562l-15.609374-3.496093c4.050781-18.078125 16.1875-30.230469 30.203124-30.230469 14.015626 0 26.152344 12.152344 30.207032 30.238281zm0 0" fill="#e94f4f"/><path d="m176 312v72c-19.609375-9.808594-31.996094-29.851562-32-51.777344v-20.222656c0-8.835938 7.164062-16 16-16s16 7.164062 16 16zm0 0" fill="#ffb531"/><path d="m100.625 358.3125 3.375 1.6875v-48c0-8.835938-7.164062-16-16-16s-16 7.164062-16 16c0 19.613281 11.082031 37.542969 28.625 46.3125zm0 0" fill="#ffb531"/><path d="m288 312v72c19.609375-9.808594 31.996094-29.851562 32-51.777344v-20.222656c0-8.835938-7.164062-16-16-16s-16 7.164062-16 16zm0 0" fill="#ffb531"/><path d="m363.375 358.3125-3.375 1.6875v-48c0-8.835938 7.164062-16 16-16s16 7.164062 16 16c0 19.613281-11.082031 37.542969-28.625 46.3125zm0 0" fill="#ffb531"/><path d="m232 384c-10.246094-10.242188-16-24.136719-16-38.625v-33.375c0-8.835938 7.164062-16 16-16s16 7.164062 16 16v33.375c0 14.488281-5.753906 28.382812-16 38.625zm0 0" fill="#ffb531"/><path d="m152 168c-30.929688 0-56-25.070312-56-56s25.070312-56 56-56 56 25.070312 56 56c-.035156 30.914062-25.085938 55.964844-56 56zm0-96c-22.089844 0-40 17.910156-40 40s17.910156 40 40 40 40-17.910156 40-40c-.027344-22.082031-17.917969-39.972656-40-40zm0 0" fill="#ffb531"/><path d="m176 112c0 13.253906-10.746094 24-24 24s-24-10.746094-24-24 10.746094-24 24-24 24 10.746094 24 24zm0 0" fill="#2e3e51"/><path d="m154.527344 247.59375-5.054688-15.203125 16.757813-5.597656c47.332031-15.699219 98.6875-14.191407 145.015625 4.253906l3.722656 1.496094-5.9375 14.847656-3.71875-1.488281c-42.816406-17.042969-90.273438-18.433594-134.015625-3.933594zm0 0" fill="#e94f4f"/><path d="m312 168c-30.929688 0-56-25.070312-56-56s25.070312-56 56-56 56 25.070312 56 56c-.035156 30.914062-25.085938 55.964844-56 56zm0-96c-22.089844 0-40 17.910156-40 40s17.910156 40 40 40 40-17.910156 40-40c-.027344-22.082031-17.917969-39.972656-40-40zm0 0" fill="#ffb531"/><g fill="#2e3e51"><path d="m193.347656 36.4375 13.3125-8.875 16 24.003906-13.3125 8.875zm0 0"/><path d="m241.34375 51.566406 16-24.003906 13.3125 8.875-16 24.003906zm0 0"/><path d="m207.847656 82.984375v-16h-1.007812c-10.527344-.054687-20.921875-2.398437-30.457032-6.863281-4.421874-2.148438-8.679687-4.617188-12.742187-7.386719-8.566406-6.429687-18.582031-10.65625-29.167969-12.300781-17.355468-2.050782-34.800781 3.019531-48.359375 14.046875-18.648437 15.054687-26.402343 39.851562-19.65625 62.847656l6.253907 20.960937 15.328124-4.578124-6.253906-20.957032c-4.890625-16.820312.820313-34.929687 14.472656-45.90625 10.214844-8.25 23.324219-12.042968 36.367188-10.519531 8.132812 1.433594 15.800781 4.816406 22.34375 9.855469 4.699219 3.183594 9.628906 6.015625 14.742188 8.480468 11.628906 5.429688 24.296874 8.269532 37.128906 8.320313zm0 0"/><path d="m192.34375 248.910156 7.046875 14.402344c12.179687-5.742188 20.183594-17.75 20.800781-31.199219h-16c-.570312 7.347657-5.117187 13.796875-11.847656 16.796875zm0 0"/><path d="m112.359375 210.273438c-17.527344 14.117187-25.085937 18.535156-35.03125 8.605468-3.785156-3.792968-5.714844-9.054687-5.289063-14.398437.6875-7.933594 4.59375-15.242188 10.808594-20.222657 9.082032-7.113281 16.160156-4.738281 30.039063.855469l2.546875 1.015625 5.917968-14.855468-2.480468-1c-13.664063-5.503907-29.128906-11.746094-45.894532 1.398437-9.820312 7.808594-15.945312 19.355469-16.90625 31.863281-.714843 9.925782 2.921876 19.671875 9.960938 26.703125 5.488281 6.179688 13.277344 9.824219 21.535156 10.082031 13.050782 0 25.113282-9.726562 34.832032-17.601562 10.105468-8.144531 19.648437-15.824219 28.082031-14.207031l3.039062-15.703125c-15.679687-3.074219-29.230469 7.847656-41.160156 17.464844zm0 0"/><path d="m367.734375 66.839844c13.65625 10.976562 19.371094 29.089844 14.480469 45.914062l-6.214844 20.957032 15.328125 4.578124 6.257813-20.960937c6.734374-23.003906-1.039063-47.800781-19.699219-62.847656-22.046875-18.851563-54.308594-19.601563-77.207031-1.792969-3.09375 2-6.238282 4-9.601563 5.847656-10.429687 5.554688-22.066406 8.457032-33.886719 8.449219h-1.007812v16h1.007812c14.449219.003906 28.679688-3.546875 41.433594-10.335937 3.78125-2.023438 7.296875-4.28125 10.757812-6.503907 6.433594-4.972656 13.960938-8.335937 21.953126-9.808593 13.050781-1.527344 26.167968 2.257812 36.398437 10.503906zm0 0"/><path d="m252.167969 232-8 .097656h-8c.621093 13.449219 8.625 25.453125 20.800781 31.199219l7.046875-14.402344c-6.714844-3.070312-11.246094-9.535156-11.847656-16.894531zm0 0"/><path d="m391.023438 171.632812c-16.800782-13.136718-32.238282-6.90625-45.894532-1.394531l-2.480468 1 5.917968 14.859375 2.546875-1.019531c13.878907-5.597656 20.957031-8 30.039063-.855469 6.230468 4.976563 10.148437 12.285156 10.847656 20.226563.425781 5.339843-1.503906 10.601562-5.289062 14.398437-9.957032 9.929688-17.511719 5.511719-35.03125-8.609375-11.917969-9.597656-25.472657-20.527343-41.160157-17.453125l3.039063 15.703125c8.457031-1.601562 17.976562 6.0625 28.082031 14.207031 9.71875 7.832032 21.785156 17.601563 34.832031 17.601563 8.257813-.257813 16.046875-3.902344 21.535156-10.082031 7.039063-7.03125 10.675782-16.777344 9.960938-26.703125-.96875-12.519531-7.109375-24.070313-16.945312-31.878907zm0 0"/></g></svg>