<svg height="464pt" viewBox="0 0 464 464" width="464pt" xmlns="http://www.w3.org/2000/svg"><path d="m72 96v304h128v-80h64v80h128v-304zm0 0" fill="#d6d6d4"/><path d="m104 256h256v16h-256zm0 0" fill="#c9c9c7"/><path d="m104 320h96v16h-96zm0 0" fill="#c9c9c7"/><path d="m264 320h96v16h-96zm0 0" fill="#c9c9c7"/><path d="m360 0h-256c-19.789062 34.628906-56.613281 56-96.496094 56h-7.503906c0 22.089844 17.910156 40 40 40h384c22.089844 0 40-17.910156 40-40h-7.503906c-39.882813 0-76.707032-21.371094-96.496094-56zm0 0" fill="#803a32"/><path d="m456.496094 56c-39.882813 0-76.707032-21.371094-96.496094-56h-38.71875l-157.441406 96h260.160156c22.089844 0 40-17.910156 40-40zm0 0" fill="#733029"/><path d="m40 208h384v16h-384zm0 0" fill="#ffb531"/><path d="m0 400h464v64h-464zm0 0" fill="#b5b5b3"/><path d="m144 464h-32l16-64h32zm0 0" fill="#c9c9c7"/><path d="m320 464h32l-16-64h-32zm0 0" fill="#c9c9c7"/><path d="m416 152h-368v16h16v24h16v-24h16v24h16v-24h16v24h16v-24h16v24h16v-24h16v24h16v-24h16v24h16v-24h16v24h16v-24h16v24h16v-24h16v24h16v-24h16v24h16v-24h16v24h16v-24h16zm0 0" fill="#e94f4f"/><path d="m72 336h-72l16-48h56zm0 0" fill="#803a32"/><path d="m16 336h56v64h-56zm0 0" fill="#d6d6d4"/><path d="m448 400h-56v-64h56zm0 0" fill="#d6d6d4"/><path d="m16 336h56v16h-56zm0 0" fill="#c9c9c7"/><path d="m448 352h-56v-16h56zm0 0" fill="#c9c9c7"/><path d="m392 336h72l-16-48h-56zm0 0" fill="#803a32"/><path d="m104 368h24v32h16v-32h24v-16h-64zm0 0" fill="#e04343"/><path d="m360 352h-64v16h24v32h16v-32h24zm0 0" fill="#e04343"/><path d="m72 288h320v32h-320zm0 0" fill="#e94f4f"/><path d="m72 288h32v112h-32zm0 0" fill="#e94f4f"/><path d="m168 288h32v112h-32zm0 0" fill="#e94f4f"/><path d="m264 288h32v112h-32zm0 0" fill="#e94f4f"/><path d="m360 288h32v112h-32zm0 0" fill="#e94f4f"/><path d="m72 224h32v64h-32zm0 0" fill="#e04343"/><path d="m168 224h32v64h-32zm0 0" fill="#e04343"/><path d="m264 224h32v64h-32zm0 0" fill="#e04343"/><path d="m360 224h32v64h-32zm0 0" fill="#e04343"/><g fill="#914b43"><path d="m112 24h24v16h-24zm0 0"/><path d="m160 40h24v16h-24zm0 0"/><path d="m208 24h24v16h-24zm0 0"/><path d="m288 56h24v16h-24zm0 0"/><path d="m88 56h24v16h-24zm0 0"/><path d="m320 24h24v16h-24zm0 0"/><path d="m360 56h24v16h-24zm0 0"/></g><path d="m8 424h24v16h-24zm0 0" fill="#c9c9c7"/><path d="m64 432h24v16h-24zm0 0" fill="#c9c9c7"/><path d="m376 424h24v16h-24zm0 0" fill="#c9c9c7"/><path d="m416 416h24v16h-24zm0 0" fill="#c9c9c7"/><path d="m39.566406 288-16 48h16.867188l16-48zm0 0" fill="#662b24"/><path d="m312 432-8-32h-144l-8 32zm0 0" fill="#e0e0de"/><path d="m152 432-8 32h176l-8-32zm0 0" fill="#d6d6d4"/><path d="m72 96v64h320v-64zm88 64h-56v-36c0-15.464844 12.535156-28 28-28s28 12.535156 28 28zm112 0h-80v-24c0-22.089844 17.910156-40 40-40s40 17.910156 40 40zm88 0h-56v-36c0-15.464844 12.535156-28 28-28s28 12.535156 28 28zm0 0" fill="#e94f4f"/><path d="m392 224h-352v24l32 8h320l32-8v-24zm0 0" fill="#e94f4f"/><path d="m40 224h384v16h-384zm0 0" fill="#e04343"/><path d="m72 224h32v16c0 8.835938-7.164062 16-16 16s-16-7.164062-16-16zm0 0" fill="#f26666"/><path d="m168 224h32v16c0 8.835938-7.164062 16-16 16s-16-7.164062-16-16zm0 0" fill="#f26666"/><path d="m264 224h32v16c0 8.835938-7.164062 16-16 16s-16-7.164062-16-16zm0 0" fill="#f26666"/><path d="m360 224h32v16c0 8.835938-7.164062 16-16 16s-16-7.164062-16-16zm0 0" fill="#f26666"/><path d="m64 192h336v16h-336zm0 0" fill="#e94f4f"/><path d="m72 256h32v16h-32zm0 0" fill="#cf3a3a"/><path d="m168 256h32v16h-32zm0 0" fill="#cf3a3a"/><path d="m264 256h32v16h-32zm0 0" fill="#cf3a3a"/><path d="m360 256h32v16h-32zm0 0" fill="#cf3a3a"/><path d="m106.800781 112h50.398438c-4.589844-9.761719-14.410157-15.996094-25.199219-15.996094s-20.609375 6.234375-25.199219 15.996094zm0 0" fill="#c9c9c7"/><path d="m200.183594 112h63.632812c-7.476562-10.066406-19.277344-16-31.816406-16s-24.339844 5.933594-31.816406 16zm0 0" fill="#c9c9c7"/><path d="m306.800781 112h50.398438c-4.589844-9.761719-14.410157-15.996094-25.199219-15.996094s-20.609375 6.234375-25.199219 15.996094zm0 0" fill="#c9c9c7"/><path d="m332 96c10.785156.019531 20.59375 6.25 25.199219 16h34.800781v-16zm0 0" fill="#cf3a3a"/><path d="m263.816406 112h42.984375c4.605469-9.75 14.414063-15.980469 25.199219-16h-100c12.535156.023438 24.320312 5.953125 31.816406 16zm0 0" fill="#cf3a3a"/><path d="m132 96h-60v16h34.800781c4.605469-9.75 14.414063-15.980469 25.199219-16zm0 0" fill="#cf3a3a"/><path d="m157.199219 112h42.984375c7.496094-10.046875 19.28125-15.976562 31.816406-16h-100c10.785156.019531 20.59375 6.25 25.199219 16zm0 0" fill="#cf3a3a"/><path d="m216 96h32v56h-32zm0 0" fill="#3d4d63"/><path d="m216 144v8h32v-40zm0 0" fill="#35455c"/><path d="m392 288v47.601562l56-47.601562zm0 0" fill="#733029"/><path d="m424.503906 288h-16.886718l16.230468 48h16.886719zm0 0" fill="#662b24"/><path d="m200 320h64v80h-64zm0 0" fill="#803a32"/></svg>