<svg height="464pt" viewBox="0 0 464 464" width="464pt" xmlns="http://www.w3.org/2000/svg"><path d="m320 64-32-64h-112l-32 64-32 16v200h240v-200zm0 0" fill="#1a5485"/><path d="m176 0-32 64-32 16v200h48l72-157.496094zm0 0" fill="#1c75bd"/><path d="m320 64-32-64-56 122.503906-72 157.496094h192v-200zm0 0" fill="#348fd9"/><path d="m112 280h240v64h-240zm0 0" fill="#3d4d63"/><path d="m304 280h48v64h-48zm0 0" fill="#35455c"/><path d="m112 304h240v16h-240zm0 0" fill="#2a3845"/><path d="m112 344h240v120h-240zm0 0" fill="#348fd9"/><path d="m112 344h240v16h-240zm0 0" fill="#3086cd"/><path d="m112 80-72 32-40 232h112zm0 0" fill="#1c75bd"/><path d="m352 80 72 32 40 232h-112zm0 0" fill="#348fd9"/><g fill="#1c75bd"><path d="m240 344h16v120h-16zm0 0"/><path d="m304 344h16v120h-16zm0 0"/><path d="m272 344h16v120h-16zm0 0"/><path d="m144 344h16v120h-16zm0 0"/><path d="m208 344h16v120h-16zm0 0"/><path d="m176 344h16v120h-16zm0 0"/><path d="m320 64-4.28125-8.566406-109.246094 224.566406h17.792969l103.253906-212.238281zm0 0"/><path d="m352 80-6.769531-3.382812-98.773438 203.382812h17.78125l87.761719-180.710938zm0 0"/><path d="m352 142.945312-65.664062 137.054688h17.734374l47.929688-100.046875zm0 0"/></g><path d="m4.136719 320h107.863281v-16h-105.105469zm0 0" fill="#2066a1"/><path d="m9.65625 288h102.34375v-16h-99.585938zm0 0" fill="#2066a1"/><path d="m37.238281 128h74.761719v-16h-72zm0 0" fill="#2066a1"/><path d="m31.726562 160h80.273438v-16h-77.519531zm0 0" fill="#2066a1"/><path d="m26.207031 192h85.792969v-16h-83.03125zm0 0" fill="#2066a1"/><path d="m148.632812 54.742188-4.632812 9.257812-7.191406 3.601562 59.09375 133.855469 8.90625-19.472656zm0 0" fill="#2066a1"/><path d="m112 80v17.207031l66.390625 142.570313 8.738281-19.121094-67.320312-144.558594zm0 0" fill="#2066a1"/><path d="m112 184.382812 44.503906 95.617188h3.496094l7.007812-15.328125-55.007812-118.191406zm0 0" fill="#2066a1"/><path d="m368 87.113281-16-7.113281v264h16zm0 0" fill="#3086cd"/><path d="m352 304v16h107.863281l-2.757812-16zm0 0" fill="#1c75bd"/><path d="m451.585938 272h-99.585938v16h102.34375zm0 0" fill="#1c75bd"/><path d="m424 112h-72v16h74.761719zm0 0" fill="#1c75bd"/><path d="m429.519531 144h-77.519531v16h80.273438zm0 0" fill="#1c75bd"/><path d="m435.03125 176h-83.03125v16h85.792969zm0 0" fill="#1c75bd"/><path d="m96 87.113281v256.886719h16v-264zm0 0" fill="#2066a1"/></svg>