<svg height="464pt" viewBox="0 -84 464 464" width="464pt" xmlns="http://www.w3.org/2000/svg"><path d="m270.496094 73c-24.933594-36.054688-63.238282-60.648438-106.398438-68.3125l-28.097656-4.6875v40.230469c46.90625 1.128906 92.992188 12.566406 134.984375 33.496093zm0 0" fill="#ffa912"/><path d="m160 168c0-70.691406-35.816406-128-80-128s-80 57.308594-80 128 35.816406 128 80 128 80-57.308594 80-128zm0 0" fill="#e94f4f"/><path d="m136 168c0-57.4375-25.070312-104-56-104s-56 46.5625-56 104 25.070312 104 56 104 56-46.5625 56-104zm0 0" fill="#ba2727"/><path d="m100 168c0-17.671875-8.953125-32-20-32s-20 14.328125-20 32 8.953125 32 20 32 20-14.328125 20-32zm0 0" fill="#e94f4f"/><path d="m464 264c-32.917969.007812-61.613281-22.394531-69.601562-54.328125l-10.398438-41.671875 10.398438-41.671875c7.988281-31.933594 36.683593-54.335937 69.601562-54.328125l-24 96zm0 0" fill="#ffa912"/><g fill="#d6d6d4"><path d="m285.167969 254.59375 12.996093-9.328125 14 19.5-12.996093 9.332031zm0 0"/><path d="m313.824219 236.308594 12.671875-9.773438 13.5 17.5-12.667969 9.773438zm0 0"/><path d="m340.402344 215.976562 11.511718-11.113281 13.996094 14.496094-11.511718 11.113281zm0 0"/><path d="m128 40h-48c44.183594 0 80 57.304688 80 128s-35.816406 128-80 128h48c100.722656 0 195.566406-47.421875 256-128-60.433594-80.578125-155.277344-128-256-128zm0 0"/></g><path d="m168 5.542969v37.160156c5.367188.664063 10.695312 1.488281 16 2.402344v-35.601563c-5.261719-1.601562-10.601562-2.921875-16-3.960937zm0 0" fill="#f58f00"/><path d="m224 28.113281c-5.15625-3.320312-10.5-6.339843-16-9.050781v31.203125c5.375 1.375 10.710938 2.886719 16 4.535156zm0 0" fill="#f58f00"/><path d="m278.140625 86.726562 19.328125-27.339843 13.0625 9.234375-19.324219 27.339844zm0 0" fill="#2066a1"/><path d="m305.640625 105.804688 20-26.171876 12.71875 9.71875-19.996094 26.171876zm0 0" fill="#2066a1"/><path d="m332.210938 124.472656 20.507812-21.492187 11.574219 11.046875-20.503907 21.492187zm0 0" fill="#2066a1"/><path d="m167.726562 112c73.699219 0 146.242188 18.289062 211.128907 53.230469l4.855469 2.402343c-60.449219-80.359374-155.15625-127.628906-255.710938-127.632812h-48c31.617188 0 58.863281 29.414062 71.855469 72zm0 0" fill="#2066a1"/><path d="m450.832031 124.6875-62.671875 59.945312 6.253906 25.039063c7.984376 31.929687 36.675782 54.328125 69.585938 54.328125l-24-96zm0 0" fill="#f58f00"/><path d="m192 176 88-8-32 40zm0 0" fill="#ffa912"/></svg>